<svg xmlns="http://www.w3.org/2000/svg" xml:space="preserve" width="1180.267" height="286.507">
  <path d="M2148.82 1074.41C2148.82 481.031 1667.79 0 1074.41 0 481.027 0 0 481.031 0 1074.41c0 593.38 481.027 1074.41 1074.41 1074.41 593.38 0 1074.41-481.03 1074.41-1074.41" style="fill:#f6b70c;fill-opacity:1;fill-rule:nonzero;stroke:none" transform="matrix(.13333 0 0 -.13333 0 286.507)"/>
  <path d="M1222.51 335.309 712.477 501.031c-157.18 51.071-243.508 220.489-192.438 377.668l320.902 987.651c18.758 57.72 80.758 89.31 138.485 70.56 57.724-18.76 89.314-80.76 70.564-138.48L729.082 810.781c-13.617-41.91 9.402-87.09 51.316-100.711l510.032-165.718 128.03 394.046-389.02 126.402c-57.721 18.75-89.315 80.75-70.557 138.48 18.758 57.73 80.757 89.32 138.477 70.56l408.03-132.57c104.78-34.05 162.34-147 128.29-251.79l-134.21-413.05c-37.45-115.27-161.7-178.578-276.96-141.121" style="fill:#fff;fill-opacity:1;fill-rule:nonzero;stroke:none" transform="matrix(.13333 0 0 -.13333 0 286.507)"/>
  <path d="M6310.78 1051.15c0 142.79-96.28 237.42-210.18 237.42-113.86 0-208.53-94.63-208.53-237.42v-3.24c0-142.75 94.67-237.379 208.53-237.379 113.9 0 210.18 93.008 210.18 237.379zm-147.6-447.56c-129.96 0-210.17 59.308-267.9 128.34V619.59h-243.83v1171.09h243.83v-434.76c59.33 80.24 141.14 139.6 267.9 139.6 200.52 0 391.46-157.23 391.46-444.37v-3.24c0-287.129-187.74-444.32-391.46-444.32m948.06 16v121.922c-56.13-72.16-128.32-137.922-251.84-137.922-184.49 0-291.98 121.89-291.98 319.242v556.598h243.87V999.832c0-115.5 54.56-174.891 147.55-174.891 93.07 0 152.4 59.391 152.4 174.891v479.598h243.87V619.59h-243.87" style="fill:#f6b70c;fill-opacity:1;fill-rule:nonzero;stroke:none" transform="matrix(.13333 0 0 -.13333 0 286.507)"/>
  <path d="M7714.43 603.59c-120.31 0-255.08 40.101-368.94 129.898l104.29 160.422c92.98-67.351 190.86-102.66 271.1-102.66 70.56 0 102.65 25.648 102.65 64.191v3.207c0 52.942-83.41 70.59-178.08 99.481-120.31 35.25-256.65 91.381-256.65 258.251v3.22c0 174.86 141.14 272.67 314.38 272.67 109.09 0 227.84-36.86 320.86-99.41l-93.02-168.45c-85.06 49.7-170.07 80.18-232.57 80.18-59.41 0-89.86-25.67-89.86-59.33v-3.21c0-48.11 81.77-70.6 174.87-102.68 120.31-40.12 259.82-97.87 259.82-255.038v-3.203c0-190.949-142.75-277.539-328.85-277.539" style="fill:#f6b70c;fill-opacity:1;fill-rule:nonzero;stroke:none" transform="matrix(.13333 0 0 -.13333 0 286.507)"/>
  <path d="M8521.54 598.781c-65.78-174.859-136.34-240.64-282.32-240.64-88.3 0-154.01 22.441-216.55 59.371l81.77 176.418c32.13-19.211 72.2-33.692 104.29-33.692 41.7 0 64.14 12.883 85.05 56.192l-336.93 863h258.33l195.63-585.52 187.73 585.52h253.44l-330.44-880.649" style="fill:#f6b70c;fill-opacity:1;fill-rule:nonzero;stroke:none" transform="matrix(.13333 0 0 -.13333 0 286.507)"/>
  <path d="M3126.23 1051.15c0 142.79-96.25 237.42-210.17 237.42-113.84 0-208.53-94.63-208.53-237.42v-3.24c0-142.75 94.69-237.379 208.53-237.379 113.92 0 210.17 93.008 210.17 237.379zm-147.59-447.56c-129.93 0-210.14 59.308-267.91 128.34V619.59h-243.8v1171.09h243.8v-434.76c59.36 80.24 141.19 139.6 267.91 139.6 200.53 0 391.45-157.23 391.45-444.37v-3.24c0-287.129-187.69-444.32-391.45-444.32m948.1 16v121.922c-56.17-72.16-128.37-137.922-251.86-137.922-184.51 0-291.96 121.89-291.96 319.242v556.598h243.84V999.832c0-115.5 54.55-174.891 147.56-174.891 93.06 0 152.42 59.391 152.42 174.891v479.598h243.84V619.59h-243.84" style="fill:#fff;fill-opacity:1;fill-rule:nonzero;stroke:none" transform="matrix(.13333 0 0 -.13333 0 286.507)"/>
  <path d="M4529.93 603.59c-120.33 0-255.08 40.101-368.98 129.898l104.28 160.422c93.01-67.351 190.9-102.66 271.11-102.66 70.55 0 102.66 25.648 102.66 64.191v3.207c0 52.942-83.41 70.59-178.1 99.481-120.31 35.25-256.63 91.381-256.63 258.251v3.22c0 174.86 141.17 272.67 314.42 272.67 109.07 0 227.8-36.86 320.85-99.41l-93.05-168.45c-85.03 49.7-170.09 80.18-232.61 80.18-59.39 0-89.84-25.67-89.84-59.33v-3.21c0-48.11 81.81-70.6 174.86-102.68 120.33-40.12 259.87-97.87 259.87-255.038v-3.203c0-190.949-142.77-277.539-328.84-277.539" style="fill:#fff;fill-opacity:1;fill-rule:nonzero;stroke:none" transform="matrix(.13333 0 0 -.13333 0 286.507)"/>
  <path d="M5337 598.781c-65.75-174.859-136.34-240.64-282.33-240.64-88.22 0-154 22.441-216.56 59.371l81.81 176.418c32.07-19.211 72.21-33.692 104.26-33.692 41.71 0 64.18 12.883 85.05 56.192l-336.89 863h258.25l195.75-585.52L5414 1479.43h253.48L5337 598.781" style="fill:#fff;fill-opacity:1;fill-rule:nonzero;stroke:none" transform="matrix(.13333 0 0 -.13333 0 286.507)"/>
</svg>
