<svg width="851" height="192" xmlns="http://www.w3.org/2000/svg" xml:space="preserve">
  <path fill="#f6b70c" d="M512.5 98.602c0-19.039-12.836-31.656-28.023-31.656-15.18 0-27.803 12.617-27.803 31.656v.432c0 19.032 12.622 31.65 27.803 31.65 15.187 0 28.024-12.401 28.024-31.65v-.432zm-19.679 59.673c-17.328 0-28.022-7.908-35.72-17.112v14.978h-32.509V0h32.51v57.967c7.91-10.699 18.818-18.613 35.719-18.613 26.735 0 52.193 20.963 52.193 59.248v.432c0 38.282-25.031 59.24-52.193 59.24m126.405-2.133v-16.255c-7.484 9.62-17.109 18.389-33.578 18.389-24.598 0-38.93-16.252-38.93-42.565V41.5h32.516v63.945c0 15.4 7.274 23.318 19.672 23.318 12.41 0 20.32-7.919 20.32-23.318V41.499h32.515v114.642h-32.515"/>
  <path fill="#f6b70c" d="M699.65 158.275c-16.042 0-34.01-5.347-49.192-17.32l13.905-21.389c12.397 8.98 25.448 13.688 36.146 13.688 9.408 0 13.686-3.42 13.686-8.559v-.427c0-7.059-11.12-9.412-23.743-13.264-16.04-4.7-34.22-12.184-34.22-34.433v-.429c0-23.314 18.82-36.355 41.917-36.355 14.545 0 30.378 4.915 42.78 13.254l-12.402 22.46c-11.34-6.627-22.675-10.69-31.008-10.69-7.922 0-11.981 3.422-11.981 7.91v.428c0 6.414 10.902 9.413 23.315 13.69 16.04 5.35 34.642 13.05 34.642 34.004v.427c0 25.46-19.033 37.005-43.846 37.005"/>
  <path fill="#f6b70c" d="M807.261 159.916C798.491 183.23 789.083 192 769.62 192c-11.773 0-20.534-2.992-28.872-7.916l10.902-23.521c4.284 2.561 9.627 4.492 13.905 4.492 5.56 0 8.552-1.718 11.34-7.492L731.97 42.499h34.443l26.084 78.067 25.03-78.067h33.79L807.26 159.916"/>
  <path fill="#3e3d3f" d="M87.904 98.602c0-19.039-12.833-31.656-28.021-31.656-15.179 0-27.804 12.617-27.804 31.656v.432c0 19.032 12.625 31.65 27.804 31.65 15.188 0 28.021-12.401 28.021-31.65v-.432zm-19.678 59.673c-17.323 0-28.018-7.908-35.72-17.112v14.978H0V0h32.506v57.967c7.914-10.699 18.825-18.613 35.72-18.613 26.737 0 52.192 20.963 52.192 59.248v.432c0 38.282-25.024 59.24-52.192 59.24m126.41-2.133v-16.255c-7.489 9.62-17.115 18.389-33.58 18.389-24.6 0-38.927-16.252-38.927-42.565V41.5h32.511v63.945c0 15.4 7.273 23.318 19.674 23.318 12.408 0 20.322-7.919 20.322-23.318V41.499h32.512v114.642h-32.512"/>
  <path fill="#3e3d3f" d="M275.06 158.275c-16.044 0-34.01-5.347-49.196-17.32l13.903-21.389c12.401 8.98 25.453 13.688 36.147 13.688 9.407 0 13.688-3.42 13.688-8.559v-.427c0-7.059-11.12-9.412-23.746-13.264-16.04-4.7-34.216-12.184-34.216-34.433v-.429c0-23.314 18.822-36.355 41.921-36.355 14.542 0 30.373 4.915 42.78 13.254l-12.407 22.46c-11.337-6.627-22.678-10.69-31.014-10.69-7.919 0-11.979 3.422-11.979 7.91v.428c0 6.414 10.908 9.413 23.315 13.69 16.043 5.35 34.648 13.05 34.648 34.004v.427c0 25.46-19.035 37.005-43.844 37.005"/>
  <path fill="#3e3d3f" d="M382.666 158.916C373.9 182.23 364.488 191 345.023 191c-11.762 0-20.532-2.992-28.874-7.916l10.908-23.521c4.276 2.561 9.628 4.492 13.901 4.492 5.561 0 8.557-1.718 11.34-7.492L307.38 41.499h34.433l26.1 78.067 25.02-78.067h33.796l-44.063 117.417"/>
</svg>
